<svg xmlns="http://www.w3.org/2000/svg" xmlns:xlink="http://www.w3.org/1999/xlink" width="500"
    zoomAndPan="magnify" viewBox="0 0 1250 1250" height="500" preserveAspectRatio="xMidYMid meet"
    version="1.0">
    <defs>
        <filter x="0%" y="0%" width="100%" height="100%" id="63ebdc9c7b">
            <feColorMatrix values="0 0 0 0 1 0 0 0 0 1 0 0 0 0 1 0 0 0 1 0"
                color-interpolation-filters="sRGB" />
        </filter>
        <mask id="0f1cf622e6">
            <g filter="url(#63ebdc9c7b)">
                <rect x="-37.5" width="450" fill="#000000" y="-37.499999" height="449.999989"
                    fill-opacity="0.0667" />
            </g>
        </mask>
        <clipPath id="5272c9e012">
            <path d="M 16 7 L 358 7 L 358 369 L 16 369 Z M 16 7 " clip-rule="nonzero" />
        </clipPath>
        <clipPath id="eb0f3aa9ad">
            <path
                d="M 71.078125 -32.441406 L 412.007812 75.960938 L 295.421875 442.621094 L -45.507812 334.21875 Z M 71.078125 -32.441406 "
                clip-rule="nonzero" />
        </clipPath>
        <clipPath id="c62afba5a5">
            <path
                d="M 70.980469 -32.472656 L 411.910156 75.933594 L 295.324219 442.59375 L -45.605469 334.1875 Z M 70.980469 -32.472656 "
                clip-rule="nonzero" />
        </clipPath>
        <clipPath id="a05c7aad99">
            <path
                d="M 70.980469 -32.472656 L 411.910156 75.933594 L 295.324219 442.59375 L -45.605469 334.1875 Z M 70.980469 -32.472656 "
                clip-rule="nonzero" />
        </clipPath>
        <clipPath id="86c2db2c1b">
            <rect x="0" width="375" y="0" height="375" />
        </clipPath>
    </defs>
    <g mask="url(#0f1cf622e6)">
        <g transform="matrix(1, 0, 0, 1, 0, 0)">
            <g clip-path="url(#86c2db2c1b)">
                <g clip-path="url(#5272c9e012)">
                    <g clip-path="url(#eb0f3aa9ad)">
                        <g clip-path="url(#c62afba5a5)">
                            <g clip-path="url(#a05c7aad99)">
                                <path fill="#ffffff"
                                    d="M 349.484375 240.175781 C 349.527344 239.976562 349.609375 239.660156 349.484375 240.175781 Z M 356.742188 230.101562 C 353.867188 220.5625 346.457031 212.445312 337.679688 207.914062 C 320.488281 199.042969 294.65625 199.957031 284.382812 180.914062 C 280.378906 173.480469 281.710938 166.867188 281.09375 158.984375 C 280.667969 153.621094 280.488281 148.246094 279.992188 142.890625 C 279.046875 132.703125 277.785156 122.53125 275.894531 112.476562 C 272.199219 92.796875 266.042969 73.003906 255.28125 55.992188 C 245.105469 39.902344 231.199219 25.667969 214.234375 16.785156 C 197.480469 8.003906 178.4375 4.789062 159.878906 9.117188 C 142.699219 13.121094 127.359375 22.929688 114.679688 34.992188 C 101.609375 47.425781 90.949219 62.265625 82.09375 77.925781 C 71.820312 96.101562 63.273438 115.390625 56.933594 135.300781 C 56.585938 134.996094 56.226562 134.722656 55.878906 134.492188 C 54.078125 133.285156 51.914062 132.398438 49.933594 131.523438 C 46.261719 129.898438 42.257812 128.769531 38.234375 128.542969 C 31.332031 128.164062 24.460938 130.679688 20.160156 136.230469 C 15.402344 142.359375 16.421875 150.734375 18.707031 157.605469 C 23.285156 171.347656 30.984375 184.382812 41.171875 194.777344 C 42.054688 195.679688 42.976562 196.542969 44.105469 197.128906 L 43.273438 206.070312 C 41.804688 225.761719 42.066406 245.8125 45.78125 265.25 C 47.476562 274.117188 50.246094 283.011719 54.089844 291.171875 C 55.953125 295.132812 58.082031 298.972656 60.488281 302.625 C 61.089844 303.539062 61.730469 304.390625 62.40625 305.210938 C 62.085938 305.367188 61.78125 305.617188 61.539062 305.996094 C 55.058594 316.101562 48.789062 327.167969 48.367188 339.476562 C 48.03125 349.25 52.445312 359.226562 60.453125 364.984375 C 67.335938 369.933594 76.503906 370.199219 83.726562 365.808594 C 89.976562 362.003906 94.386719 355.917969 98.347656 349.90625 C 100.378906 346.816406 102.347656 343.675781 104.464844 340.632812 C 105.496094 339.15625 106.5625 337.695312 107.699219 336.292969 C 107.820312 336.144531 108.28125 335.589844 108.363281 335.484375 C 108.464844 335.378906 108.925781 334.855469 109.039062 334.730469 C 109.617188 334.09375 110.21875 333.480469 110.835938 332.882812 C 111.445312 332.296875 112.070312 331.738281 112.722656 331.203125 C 113.007812 330.96875 113.300781 330.742188 113.597656 330.519531 C 113.742188 330.410156 113.890625 330.300781 114.039062 330.191406 C 114.085938 330.15625 114.109375 330.140625 114.136719 330.121094 C 114.164062 330.101562 114.191406 330.085938 114.242188 330.058594 C 114.941406 329.636719 115.632812 329.199219 116.367188 328.828125 C 116.6875 328.660156 117.015625 328.503906 117.351562 328.355469 C 117.503906 328.289062 118.144531 328.042969 118.265625 327.988281 C 122.570312 326.570312 126.84375 326.878906 131.046875 328.492188 C 140.886719 332.28125 147.777344 340.929688 156.867188 345.988281 C 164.503906 350.234375 174.074219 353.164062 182.511719 349.472656 C 186.953125 347.53125 190.148438 343.691406 192.007812 339.296875 C 193.882812 334.835938 194.253906 329.835938 194.691406 325.066406 C 194.796875 323.867188 194.910156 322.671875 195.046875 321.472656 C 195.105469 320.949219 195.164062 320.421875 195.238281 319.894531 C 195.269531 319.636719 195.308594 319.371094 195.351562 319.117188 C 195.355469 319.089844 195.449219 318.519531 195.46875 318.390625 C 195.671875 317.300781 195.921875 316.214844 196.246094 315.15625 C 196.394531 314.671875 196.558594 314.191406 196.734375 313.71875 C 196.824219 313.480469 196.921875 313.253906 197.015625 313.015625 C 197.066406 312.878906 197.089844 312.804688 197.105469 312.757812 C 197.132812 312.722656 197.160156 312.671875 197.226562 312.546875 C 197.746094 311.585938 198.316406 310.660156 198.992188 309.800781 C 199.058594 309.746094 199.601562 309.140625 199.671875 309.070312 C 200.097656 308.65625 200.5625 308.285156 201.015625 307.902344 C 201.070312 307.859375 201.113281 307.820312 201.152344 307.789062 C 201.375 307.636719 201.605469 307.496094 201.839844 307.355469 C 202.292969 307.089844 202.757812 306.839844 203.234375 306.613281 C 204.441406 306.035156 204.34375 306.078125 205.6875 305.726562 C 208.082031 305.09375 209.359375 304.996094 211.65625 305.03125 C 212.792969 305.050781 213.921875 305.132812 215.050781 305.265625 C 216.433594 305.429688 216.410156 305.425781 217.804688 305.738281 C 223.378906 307.003906 228.5625 309.589844 233.773438 311.871094 C 239.394531 314.332031 245.351562 316.675781 251.554688 316.964844 C 256.65625 317.210938 262.085938 315.957031 266.460938 313.28125 C 271.089844 310.449219 274.574219 306.210938 275.488281 300.765625 C 276.375 295.449219 274.0625 290.632812 272.875 285.582031 C 272.726562 284.96875 272.605469 284.347656 272.511719 283.722656 C 272.503906 283.6875 272.46875 283.40625 272.449219 283.226562 C 272.445312 283.03125 272.410156 282.421875 272.414062 282.507812 C 272.402344 281.992188 272.421875 281.472656 272.460938 280.964844 C 272.480469 280.710938 272.515625 280.453125 272.539062 280.203125 C 272.550781 280.109375 272.554688 280.039062 272.558594 279.980469 C 272.574219 279.921875 272.59375 279.847656 272.621094 279.742188 C 272.886719 278.703125 273.199219 277.695312 273.621094 276.710938 C 273.695312 276.589844 274.039062 275.886719 274.09375 275.789062 C 274.40625 275.230469 274.746094 274.6875 275.109375 274.160156 C 275.398438 273.734375 275.714844 273.328125 276.027344 272.914062 C 276.078125 272.851562 276.121094 272.800781 276.152344 272.753906 C 276.175781 272.726562 276.207031 272.699219 276.25 272.644531 C 276.472656 272.398438 276.691406 272.15625 276.925781 271.921875 C 277.757812 271.0625 278.652344 270.257812 279.589844 269.515625 C 280.699219 268.636719 280.914062 268.5 282.117188 267.785156 C 283.171875 267.160156 284.257812 266.597656 285.378906 266.097656 C 285.875 265.871094 286.378906 265.667969 286.886719 265.46875 C 287.210938 265.335938 287.511719 265.234375 288.253906 265.015625 C 289.453125 264.648438 290.675781 264.371094 291.90625 264.144531 C 294.632812 263.652344 297.140625 263.464844 299.925781 263.40625 C 305.691406 263.28125 311.441406 263.769531 317.199219 263.9375 C 327.859375 264.25 338.695312 262.84375 347.570312 256.445312 C 355.871094 250.46875 359.714844 239.972656 356.742188 230.101562 "
                                    fill-opacity="1" fill-rule="nonzero" />
                                <path fill="#000000"
                                    d="M 126.019531 129.738281 C 125.484375 133.289062 123.703125 138.273438 119.378906 138.292969 C 117.28125 138.308594 115.394531 137.003906 114.328125 135.257812 C 113.132812 133.304688 113.285156 130.746094 114.101562 128.683594 C 114.753906 127.027344 115.640625 125.316406 116.746094 123.90625 C 117.25 123.269531 117.785156 122.660156 118.300781 122.035156 C 118.972656 121.222656 119.703125 120.652344 120.558594 120.117188 C 120.167969 119.164062 119.742188 118.230469 119.21875 117.34375 C 118.628906 116.34375 117.855469 115.628906 116.914062 114.945312 C 115.777344 114.121094 116.917969 112.332031 118.113281 113.097656 C 120.96875 114.9375 123.460938 117.410156 124.769531 120.585938 C 125.945312 123.453125 126.484375 126.652344 126.019531 129.738281 Z M 168.59375 71.914062 C 168.582031 71.914062 168.582031 71.90625 168.570312 71.902344 C 168.578125 71.90625 168.582031 71.914062 168.59375 71.914062 Z M 178.003906 70.988281 C 176.953125 67.585938 174.765625 64.730469 171.371094 63.441406 C 168.460938 62.328125 165.191406 62.863281 162.511719 64.34375 C 156.785156 67.507812 153.5 73.777344 151.289062 79.6875 C 150.023438 83.074219 149.246094 86.625 148.804688 90.207031 C 148.394531 93.515625 148.03125 97.375 149.292969 100.523438 C 150.152344 102.675781 152.042969 104.128906 154.25 104.617188 C 156.847656 106.324219 160.171875 106.890625 163.503906 105.773438 C 170.332031 103.496094 174.027344 96.382812 176.277344 90 C 177.441406 86.707031 178.164062 83.230469 178.515625 79.765625 C 178.804688 76.871094 178.863281 73.789062 178.003906 70.988281 Z M 348.71875 242.847656 C 348.65625 243.011719 348.351562 243.738281 348.316406 243.847656 C 347.835938 244.820312 347.265625 245.757812 346.621094 246.632812 C 346.4375 246.890625 346.242188 247.140625 346.027344 247.410156 C 346.003906 247.433594 345.988281 247.445312 345.957031 247.484375 C 345.5625 247.90625 345.164062 248.316406 344.742188 248.707031 C 344.371094 249.058594 343.984375 249.394531 343.589844 249.726562 C 343.390625 249.886719 343.1875 250.046875 342.984375 250.203125 C 342.984375 250.203125 342.464844 250.589844 342.398438 250.648438 C 338.484375 253.351562 334.675781 254.628906 330.105469 255.523438 C 328.910156 255.757812 327.707031 255.945312 326.5 256.082031 C 325.597656 256.183594 324.59375 256.242188 323.261719 256.292969 C 320.460938 256.382812 317.65625 256.320312 314.855469 256.214844 C 309.1875 256 303.519531 255.539062 297.84375 255.808594 C 292.304688 256.074219 286.917969 256.949219 281.816406 259.195312 C 277.070312 261.292969 272.875 264.476562 269.585938 268.492188 C 266.480469 272.285156 264.53125 277.265625 264.664062 282.207031 C 264.808594 287.386719 267.164062 291.996094 268.066406 297.019531 C 268.175781 297.617188 268.179688 298.878906 268.046875 299.910156 C 268.039062 299.96875 268.035156 300.011719 268.035156 300.035156 C 268.019531 300.089844 268 300.152344 267.980469 300.222656 C 267.910156 300.460938 267.855469 300.703125 267.777344 300.941406 C 267.703125 301.175781 267.625 301.414062 267.535156 301.644531 C 267.519531 301.691406 267.210938 302.3125 267.246094 302.277344 C 266.25 304.0625 265.214844 305.167969 263.625 306.296875 C 260.207031 308.710938 255.703125 309.78125 251.449219 309.507812 C 245.742188 309.136719 240.234375 306.652344 235.070312 304.371094 C 230.011719 302.132812 224.945312 299.691406 219.496094 298.546875 C 210.167969 296.589844 199.5625 297.546875 193.113281 305.367188 C 189.972656 309.175781 188.742188 314.039062 188.085938 318.832031 C 187.757812 321.207031 187.59375 323.601562 187.40625 325.988281 C 187.316406 327.113281 187.21875 328.242188 187.101562 329.359375 C 187.035156 329.949219 186.964844 330.535156 186.886719 331.117188 C 186.851562 331.378906 186.808594 331.632812 186.773438 331.894531 C 186.753906 332.007812 186.734375 332.125 186.714844 332.242188 C 186.714844 332.261719 186.710938 332.265625 186.710938 332.289062 C 186.507812 333.339844 186.261719 334.394531 185.9375 335.417969 C 185.578125 336.574219 185.28125 337.308594 184.914062 337.980469 C 183.878906 339.875 182.941406 341.023438 181.1875 342.261719 C 181.261719 342.199219 180.597656 342.609375 180.445312 342.699219 C 180.023438 342.925781 179.597656 343.128906 179.160156 343.324219 C 179.128906 343.335938 179.011719 343.386719 178.902344 343.425781 C 178.742188 343.480469 178.347656 343.609375 178.371094 343.605469 C 177.917969 343.738281 177.457031 343.851562 176.988281 343.941406 C 176.582031 344.027344 176.167969 344.085938 175.75 344.136719 C 175.660156 344.136719 175.023438 344.1875 174.863281 344.191406 C 173.871094 344.21875 172.871094 344.171875 171.890625 344.0625 C 170.558594 343.917969 170.75 343.949219 169.4375 343.632812 C 168.402344 343.386719 167.386719 343.085938 166.386719 342.742188 C 165.425781 342.414062 164.472656 342.039062 163.539062 341.636719 C 163.320312 341.539062 163.097656 341.4375 162.878906 341.339844 C 162.824219 341.316406 162.796875 341.304688 162.769531 341.292969 C 162.753906 341.285156 162.75 341.28125 162.730469 341.277344 C 162.1875 341.011719 161.644531 340.734375 161.113281 340.445312 C 156.90625 338.195312 153.265625 335.1875 149.53125 332.25 C 140.921875 325.46875 130.730469 318.355469 119.164062 320.765625 C 111.941406 322.265625 106.394531 327.273438 101.9375 332.890625 C 97.433594 338.566406 93.953125 344.957031 89.75 350.84375 C 88.75 352.242188 87.734375 353.621094 86.652344 354.953125 C 86.527344 355.105469 86.476562 355.167969 86.457031 355.195312 C 86.4375 355.21875 86.382812 355.277344 86.261719 355.414062 C 85.980469 355.726562 85.699219 356.042969 85.410156 356.351562 C 84.839844 356.960938 84.246094 357.550781 83.632812 358.113281 C 83.066406 358.636719 82.480469 359.132812 81.871094 359.601562 C 81.792969 359.664062 81.261719 360.046875 81.183594 360.113281 C 80.863281 360.328125 80.539062 360.535156 80.207031 360.734375 C 79.601562 361.09375 78.976562 361.421875 78.332031 361.71875 C 77.980469 361.878906 77.621094 362.03125 77.257812 362.171875 C 77.242188 362.179688 77.234375 362.179688 77.207031 362.1875 C 76.953125 362.269531 76.695312 362.355469 76.433594 362.429688 C 74.515625 362.984375 73.382812 363.132812 71.632812 363.070312 C 69.726562 363.011719 67.769531 362.535156 66.050781 361.753906 C 62.253906 360.039062 59.167969 356.804688 57.089844 353.246094 C 54.851562 349.425781 53.558594 345.113281 53.519531 340.671875 C 53.472656 334.808594 54.996094 329.132812 57.222656 323.742188 C 59.421875 318.410156 62.277344 313.347656 65.191406 308.378906 C 65.195312 308.367188 65.199219 308.355469 65.207031 308.347656 C 66.511719 309.773438 67.71875 311.28125 69.023438 312.714844 C 71.855469 315.820312 75.277344 318.621094 78.53125 321.273438 C 79.484375 322.046875 80.882812 320.433594 79.945312 319.613281 C 78.359375 318.226562 76.722656 316.804688 75.355469 315.191406 C 73.9375 313.519531 72.660156 311.738281 71.335938 310 C 68.746094 306.628906 67.117188 302.890625 65.144531 299.164062 C 61.195312 291.699219 58.390625 283.660156 56.300781 275.488281 C 51.773438 257.792969 50.847656 240.121094 51.550781 221.890625 C 52.390625 200.269531 55.421875 179.234375 60.789062 158.421875 C 63.488281 147.941406 66.742188 137.59375 70.488281 127.4375 C 72.34375 122.40625 74.332031 117.425781 76.449219 112.496094 C 77.550781 109.9375 78.683594 107.402344 79.851562 104.875 C 80.78125 102.875 81.808594 100.75 83.003906 98.347656 C 83.988281 96.367188 85 94.398438 86.03125 92.429688 C 86.347656 93.855469 86.949219 95.210938 87.921875 96.421875 C 89.851562 98.824219 93.109375 99.886719 96.082031 99.066406 C 98.882812 98.289062 101.019531 96.167969 102.679688 93.882812 C 106.074219 89.210938 108.523438 83.636719 110.136719 78.121094 C 111.097656 74.828125 111.757812 71.4375 112.144531 68.035156 C 112.324219 66.496094 112.488281 64.921875 112.457031 63.375 C 112.433594 62.082031 112.449219 60.691406 112.09375 59.441406 C 112.074219 59.328125 112.066406 59.214844 112.054688 59.101562 C 111.949219 58.355469 111.703125 57.675781 111.398438 56.992188 C 111.246094 56.660156 111.089844 56.363281 110.886719 56.0625 C 110.738281 55.84375 110.550781 55.664062 110.347656 55.503906 C 110.320312 55.417969 110.277344 55.335938 110.238281 55.25 C 110.441406 55.007812 110.640625 54.753906 110.851562 54.511719 C 110.996094 54.335938 111.539062 53.699219 111.554688 53.675781 C 111.839844 53.347656 112.121094 53.023438 112.410156 52.695312 C 117.980469 46.347656 124.070312 40.421875 130.742188 35.238281 C 131.585938 34.585938 132.4375 33.941406 133.296875 33.308594 C 133.667969 33.039062 134.035156 32.773438 134.40625 32.507812 C 134.59375 32.378906 134.777344 32.25 134.964844 32.113281 C 134.988281 32.097656 134.988281 32.09375 135.007812 32.082031 C 135.046875 32.054688 135.082031 32.035156 135.144531 31.992188 C 136.835938 30.855469 138.542969 29.753906 140.292969 28.714844 C 143.824219 26.621094 147.488281 24.757812 151.277344 23.183594 C 152.148438 22.820312 153.023438 22.484375 153.902344 22.148438 C 154.046875 22.09375 154.195312 22.042969 154.34375 21.992188 C 154.902344 21.800781 155.464844 21.609375 156.027344 21.425781 C 157.9375 20.808594 159.867188 20.269531 161.816406 19.8125 C 163.78125 19.347656 165.761719 18.964844 167.757812 18.671875 C 168.796875 18.515625 169.84375 18.402344 170.886719 18.28125 C 171.027344 18.269531 171.164062 18.253906 171.300781 18.246094 C 171.90625 18.199219 172.511719 18.160156 173.121094 18.128906 C 177.476562 17.910156 181.847656 18.109375 186.167969 18.722656 C 186.722656 18.800781 187.277344 18.894531 187.835938 18.976562 C 186.859375 18.835938 187.894531 18.992188 188.285156 19.066406 C 189.464844 19.296875 190.640625 19.558594 191.804688 19.847656 C 193.910156 20.371094 195.988281 20.980469 198.035156 21.679688 C 200.089844 22.382812 202.113281 23.167969 204.101562 24.035156 C 204.621094 24.257812 205.136719 24.492188 205.648438 24.722656 C 205.726562 24.757812 205.785156 24.785156 205.835938 24.808594 C 205.886719 24.835938 205.960938 24.871094 206.066406 24.921875 C 207.078125 25.429688 208.089844 25.9375 209.085938 26.480469 C 213.035156 28.609375 216.816406 31.042969 220.417969 33.726562 C 221.273438 34.363281 222.121094 35.015625 222.957031 35.683594 C 223.40625 36.042969 223.855469 36.410156 224.300781 36.777344 C 224.449219 36.902344 224.953125 37.328125 225.117188 37.464844 C 226.800781 38.929688 228.441406 40.441406 230.03125 42.007812 C 233.238281 45.167969 236.246094 48.523438 239.042969 52.046875 C 240.449219 53.8125 241.761719 55.636719 243.089844 57.457031 C 243.117188 57.496094 243.132812 57.507812 243.152344 57.539062 C 243.289062 57.742188 243.429688 57.945312 243.566406 58.148438 C 243.847656 58.5625 244.121094 58.976562 244.398438 59.398438 C 245.082031 60.441406 245.75 61.496094 246.398438 62.5625 C 248.757812 66.421875 250.878906 70.421875 252.773438 74.535156 C 253.800781 76.757812 254.765625 79.007812 255.679688 81.28125 C 256.152344 82.457031 256.609375 83.640625 257.054688 84.824219 C 257.054688 84.828125 257.128906 85.03125 257.183594 85.179688 C 257.238281 85.324219 257.3125 85.527344 257.3125 85.53125 C 257.558594 86.214844 257.796875 86.894531 258.03125 87.578125 C 259.609375 92.199219 260.984375 96.886719 262.179688 101.625 C 264.632812 111.324219 266.34375 121.207031 267.613281 131.132812 C 268.246094 136.035156 268.75 140.953125 269.214844 145.878906 C 270.566406 160.339844 269.242188 174.78125 277.8125 187.394531 C 285.796875 199.144531 297.894531 203.957031 311.011719 207.699219 C 316.976562 209.398438 323.003906 210.964844 328.769531 213.292969 C 331.207031 214.277344 333.148438 215.179688 335.46875 216.621094 C 336.414062 217.207031 337.328125 217.832031 338.21875 218.5 C 338.640625 218.8125 339.0625 219.132812 339.476562 219.457031 C 339.679688 219.621094 339.882812 219.789062 340.085938 219.953125 C 340.164062 220.019531 340.207031 220.054688 340.25 220.085938 C 340.289062 220.121094 340.339844 220.171875 340.4375 220.261719 C 342.171875 221.863281 343.800781 223.566406 345.226562 225.457031 C 345.355469 225.628906 345.875 226.378906 345.839844 226.3125 C 346.082031 226.691406 346.328125 227.066406 346.558594 227.453125 C 347.171875 228.484375 347.722656 229.550781 348.207031 230.648438 C 348.304688 230.878906 348.398438 231.109375 348.492188 231.339844 C 348.507812 231.382812 348.5625 231.523438 348.609375 231.652344 C 348.671875 231.84375 348.824219 232.296875 348.8125 232.273438 C 348.882812 232.507812 348.953125 232.742188 349.015625 232.976562 C 349.289062 233.964844 349.472656 234.964844 349.609375 235.976562 C 349.609375 236.054688 349.675781 236.78125 349.675781 236.972656 C 349.691406 237.515625 349.679688 238.0625 349.644531 238.609375 C 349.613281 239.148438 349.550781 239.683594 349.476562 240.21875 C 349.46875 240.242188 349.464844 240.261719 349.460938 240.285156 C 349.371094 240.652344 349.289062 241.019531 349.191406 241.382812 C 349.054688 241.875 348.894531 242.363281 348.71875 242.847656 Z M 349.484375 240.175781 C 349.527344 239.976562 349.609375 239.660156 349.484375 240.175781 Z M 40.886719 185.277344 C 39.148438 182.105469 37.152344 179.0625 35.585938 175.792969 C 32.957031 170.304688 30.53125 164.699219 28.304688 159.042969 C 26.335938 154.027344 23.625 147.578125 26.4375 142.402344 C 30.726562 134.515625 41.296875 136.082031 48.25 138.519531 C 50.007812 139.136719 51.90625 139.851562 53.761719 140.375 C 55.109375 140.757812 55.28125 140.632812 54.894531 142.035156 C 54.589844 143.132812 54.257812 144.226562 53.949219 145.328125 C 52.765625 149.5625 51.675781 153.816406 50.667969 158.09375 C 48.65625 166.652344 47.011719 175.296875 45.730469 183.992188 C 45.414062 186.167969 45.117188 188.34375 44.839844 190.523438 C 43.53125 188.777344 41.941406 187.195312 40.886719 185.277344 Z M 356.742188 230.101562 C 353.867188 220.5625 346.457031 212.445312 337.679688 207.914062 C 320.488281 199.042969 294.65625 199.957031 284.382812 180.914062 C 280.378906 173.480469 281.710938 166.867188 281.09375 158.984375 C 280.667969 153.621094 280.488281 148.246094 279.992188 142.890625 C 279.046875 132.703125 277.785156 122.53125 275.894531 112.476562 C 272.199219 92.796875 266.042969 73.003906 255.28125 55.992188 C 245.105469 39.902344 231.199219 25.667969 214.234375 16.785156 C 197.480469 8.003906 178.4375 4.789062 159.878906 9.117188 C 142.699219 13.121094 127.359375 22.929688 114.679688 34.992188 C 101.609375 47.425781 90.949219 62.265625 82.09375 77.925781 C 71.820312 96.101562 63.273438 115.390625 56.933594 135.300781 C 56.585938 134.996094 56.226562 134.722656 55.878906 134.492188 C 54.078125 133.285156 51.914062 132.398438 49.933594 131.523438 C 46.261719 129.898438 42.257812 128.769531 38.234375 128.542969 C 31.332031 128.164062 24.460938 130.679688 20.160156 136.230469 C 15.402344 142.359375 16.421875 150.734375 18.707031 157.605469 C 23.285156 171.347656 30.984375 184.382812 41.171875 194.777344 C 42.054688 195.679688 42.976562 196.542969 44.105469 197.128906 L 43.273438 206.070312 C 41.804688 225.761719 42.066406 245.8125 45.78125 265.25 C 47.476562 274.117188 50.246094 283.011719 54.089844 291.171875 C 55.953125 295.132812 58.082031 298.972656 60.488281 302.625 C 61.089844 303.539062 61.730469 304.390625 62.40625 305.210938 C 62.085938 305.367188 61.78125 305.617188 61.539062 305.996094 C 55.058594 316.101562 48.789062 327.167969 48.367188 339.476562 C 48.03125 349.25 52.445312 359.226562 60.453125 364.984375 C 67.335938 369.933594 76.503906 370.199219 83.726562 365.808594 C 89.976562 362.003906 94.386719 355.917969 98.347656 349.90625 C 100.378906 346.816406 102.347656 343.675781 104.464844 340.632812 C 105.496094 339.15625 106.5625 337.695312 107.699219 336.292969 C 107.820312 336.144531 108.28125 335.589844 108.363281 335.484375 C 108.464844 335.378906 108.925781 334.855469 109.039062 334.730469 C 109.617188 334.09375 110.21875 333.480469 110.835938 332.882812 C 111.445312 332.296875 112.070312 331.738281 112.722656 331.203125 C 113.007812 330.96875 113.300781 330.742188 113.597656 330.519531 C 113.742188 330.410156 113.890625 330.300781 114.039062 330.191406 C 114.085938 330.15625 114.109375 330.140625 114.136719 330.121094 C 114.164062 330.101562 114.191406 330.085938 114.242188 330.058594 C 114.941406 329.636719 115.632812 329.199219 116.367188 328.828125 C 116.6875 328.660156 117.015625 328.503906 117.351562 328.355469 C 117.503906 328.289062 118.144531 328.042969 118.265625 327.988281 C 122.570312 326.570312 126.84375 326.878906 131.046875 328.492188 C 140.886719 332.28125 147.777344 340.929688 156.867188 345.988281 C 164.503906 350.234375 174.074219 353.164062 182.511719 349.472656 C 186.953125 347.53125 190.148438 343.691406 192.007812 339.296875 C 193.882812 334.835938 194.253906 329.835938 194.691406 325.066406 C 194.796875 323.867188 194.910156 322.671875 195.046875 321.472656 C 195.105469 320.949219 195.164062 320.421875 195.238281 319.894531 C 195.269531 319.636719 195.308594 319.371094 195.351562 319.117188 C 195.355469 319.089844 195.449219 318.519531 195.46875 318.390625 C 195.671875 317.300781 195.921875 316.214844 196.246094 315.15625 C 196.394531 314.671875 196.558594 314.191406 196.734375 313.71875 C 196.824219 313.480469 196.921875 313.253906 197.015625 313.015625 C 197.066406 312.878906 197.089844 312.804688 197.105469 312.757812 C 197.132812 312.722656 197.160156 312.671875 197.226562 312.546875 C 197.746094 311.585938 198.316406 310.660156 198.992188 309.800781 C 199.058594 309.746094 199.601562 309.140625 199.671875 309.070312 C 200.097656 308.65625 200.5625 308.285156 201.015625 307.902344 C 201.070312 307.859375 201.113281 307.820312 201.152344 307.789062 C 201.375 307.636719 201.605469 307.496094 201.839844 307.355469 C 202.292969 307.089844 202.757812 306.839844 203.234375 306.613281 C 204.441406 306.035156 204.34375 306.078125 205.6875 305.726562 C 208.082031 305.09375 209.359375 304.996094 211.65625 305.03125 C 212.792969 305.050781 213.921875 305.132812 215.050781 305.265625 C 216.433594 305.429688 216.410156 305.425781 217.804688 305.738281 C 223.378906 307.003906 228.5625 309.589844 233.773438 311.871094 C 239.394531 314.332031 245.351562 316.675781 251.554688 316.964844 C 256.65625 317.210938 262.085938 315.957031 266.460938 313.28125 C 271.089844 310.449219 274.574219 306.210938 275.488281 300.765625 C 276.375 295.449219 274.0625 290.632812 272.875 285.582031 C 272.726562 284.96875 272.605469 284.347656 272.511719 283.722656 C 272.503906 283.6875 272.46875 283.40625 272.449219 283.226562 C 272.445312 283.03125 272.410156 282.421875 272.414062 282.507812 C 272.402344 281.992188 272.421875 281.472656 272.460938 280.964844 C 272.480469 280.710938 272.515625 280.453125 272.539062 280.203125 C 272.550781 280.109375 272.554688 280.039062 272.558594 279.980469 C 272.574219 279.921875 272.59375 279.847656 272.621094 279.742188 C 272.886719 278.703125 273.199219 277.695312 273.621094 276.710938 C 273.695312 276.589844 274.039062 275.886719 274.09375 275.789062 C 274.40625 275.230469 274.746094 274.6875 275.109375 274.160156 C 275.398438 273.734375 275.714844 273.328125 276.027344 272.914062 C 276.078125 272.851562 276.121094 272.800781 276.152344 272.753906 C 276.175781 272.726562 276.207031 272.699219 276.25 272.644531 C 276.472656 272.398438 276.691406 272.15625 276.925781 271.921875 C 277.757812 271.0625 278.652344 270.257812 279.589844 269.515625 C 280.699219 268.636719 280.914062 268.5 282.117188 267.785156 C 283.171875 267.160156 284.257812 266.597656 285.378906 266.097656 C 285.875 265.871094 286.378906 265.667969 286.886719 265.46875 C 287.210938 265.335938 287.511719 265.234375 288.253906 265.015625 C 289.453125 264.648438 290.675781 264.371094 291.90625 264.144531 C 294.632812 263.652344 297.140625 263.464844 299.925781 263.40625 C 305.691406 263.28125 311.441406 263.769531 317.199219 263.9375 C 327.859375 264.25 338.695312 262.84375 347.570312 256.445312 C 355.871094 250.46875 359.714844 239.972656 356.742188 230.101562 Z M 163.226562 175.335938 C 163.566406 174.875 163.351562 175.183594 163.226562 175.335938 Z M 196.777344 175.980469 C 195.609375 175.921875 194.324219 175.769531 193.285156 175.277344 C 191.898438 174.613281 190.671875 173.628906 189.332031 172.902344 C 186.71875 171.492188 184.277344 169.789062 181.730469 168.28125 C 175.929688 164.839844 169.503906 162.683594 162.972656 165.503906 C 156.914062 168.117188 153.042969 174.457031 152.175781 180.820312 C 151.246094 187.632812 154.035156 194.410156 157.976562 199.808594 C 160.394531 203.121094 163.578125 205.871094 166.851562 208.300781 C 168.558594 209.5625 170.332031 210.789062 172.167969 211.863281 C 174.207031 213.0625 176.46875 213.695312 178.730469 214.332031 C 181.878906 215.222656 185.050781 211.160156 182.410156 208.617188 C 181.113281 207.367188 179.820312 206.09375 178.421875 204.960938 C 177.019531 203.835938 175.367188 203.007812 173.871094 202.019531 C 172.5 201.113281 171.164062 200.171875 169.882812 199.15625 C 168.964844 198.429688 167.953125 197.539062 166.820312 196.363281 C 165.84375 195.34375 164.953125 194.269531 164.089844 193.15625 C 164 193.046875 163.945312 192.972656 163.898438 192.914062 C 163.863281 192.859375 163.820312 192.789062 163.757812 192.703125 C 163.609375 192.464844 163.457031 192.226562 163.308594 191.988281 C 162.871094 191.269531 162.460938 190.53125 162.09375 189.777344 C 161.8125 189.191406 161.546875 188.59375 161.320312 187.984375 C 161.285156 187.882812 161.242188 187.757812 161.230469 187.710938 C 161.121094 187.3125 160.992188 186.921875 160.890625 186.515625 C 160.71875 185.84375 160.605469 185.167969 160.5 184.484375 C 160.488281 184.445312 160.480469 184.324219 160.46875 184.222656 C 160.445312 183.777344 160.429688 183.332031 160.4375 182.882812 C 160.449219 182.296875 160.507812 181.722656 160.554688 181.140625 C 160.5625 181.074219 160.566406 181.019531 160.566406 180.972656 C 160.582031 180.917969 160.597656 180.855469 160.621094 180.777344 C 160.683594 180.535156 160.738281 180.292969 160.804688 180.050781 C 160.972656 179.449219 161.191406 178.863281 161.410156 178.277344 C 161.445312 178.183594 161.46875 178.113281 161.484375 178.054688 C 161.507812 178.019531 161.527344 177.976562 161.558594 177.921875 C 161.738281 177.597656 161.917969 177.265625 162.109375 176.941406 C 162.433594 176.410156 162.800781 175.914062 163.171875 175.410156 C 163.1875 175.390625 163.195312 175.375 163.210938 175.355469 C 163.457031 175.09375 163.707031 174.832031 163.964844 174.585938 C 164.382812 174.191406 164.824219 173.820312 165.289062 173.480469 C 165.332031 173.460938 165.371094 173.4375 165.421875 173.410156 C 165.796875 173.214844 166.171875 173.011719 166.542969 172.816406 C 166.628906 172.765625 166.875 172.667969 166.988281 172.617188 C 167.136719 172.570312 167.289062 172.519531 167.441406 172.480469 C 167.796875 172.378906 168.15625 172.328125 168.515625 172.238281 C 168.59375 172.21875 168.652344 172.207031 168.707031 172.191406 C 169.304688 172.140625 169.914062 172.140625 170.515625 172.175781 C 170.8125 172.195312 171.105469 172.230469 171.398438 172.261719 C 171.46875 172.277344 171.9375 172.347656 172.074219 172.378906 C 174.925781 173.058594 176.558594 173.957031 178.890625 175.230469 C 181.65625 176.746094 184.578125 178.867188 187.636719 179.679688 C 190.730469 180.511719 193.992188 180.898438 197.1875 180.539062 C 199.839844 180.242188 199.316406 176.101562 196.777344 175.980469 "
                                    fill-opacity="1" fill-rule="nonzero" />
                            </g>
                        </g>
                    </g>
                </g>
            </g>
        </g>
    </g>
</svg>