<svg xmlns="http://www.w3.org/2000/svg" xmlns:xlink="http://www.w3.org/1999/xlink" width="400" zoomAndPan="magnify" viewBox="0 0 300 86.249997" height="115" preserveAspectRatio="xMidYMid meet" version="1.0"><defs><g/><clipPath id="be98387457"><path d="M 64 4 L 298.707031 4 L 298.707031 81 L 64 81 Z M 64 4 " clip-rule="nonzero"/></clipPath><clipPath id="4bbee836f7"><path d="M 2.449219 2 L 70.855469 2 L 70.855469 84 L 2.449219 84 Z M 2.449219 2 " clip-rule="nonzero"/></clipPath><clipPath id="e9c6a184e5"><path d="M 2.449219 2 L 70.855469 2 L 70.855469 84 L 2.449219 84 Z M 2.449219 2 " clip-rule="nonzero"/></clipPath></defs><g fill="#ffffff" fill-opacity="1"><g transform="translate(74.578693, 67.611473)"><g><path d="M 27.941406 -40.644531 C 27.941406 -46.46875 24.78125 -49.566406 19.019531 -49.566406 L 12.082031 -49.566406 C 6.257812 -49.566406 3.097656 -46.46875 3.097656 -40.644531 L 3.097656 -8.921875 C 3.097656 -3.097656 6.257812 0 12.082031 0 L 19.019531 0 C 24.78125 0 27.941406 -3.097656 27.941406 -8.921875 L 27.941406 -15.613281 C 27.941406 -16.234375 27.570312 -16.605469 26.949219 -16.605469 L 20.753906 -16.605469 C 20.074219 -16.605469 19.765625 -16.234375 19.765625 -15.613281 L 19.765625 -10.65625 C 19.765625 -8.984375 18.898438 -8.179688 17.285156 -8.179688 L 14.0625 -8.179688 C 12.453125 -8.179688 11.585938 -8.984375 11.585938 -10.65625 L 11.585938 -38.910156 C 11.585938 -40.519531 12.390625 -41.386719 14.0625 -41.386719 L 17.285156 -41.386719 C 18.898438 -41.386719 19.765625 -40.519531 19.765625 -38.910156 L 19.765625 -33.953125 C 19.765625 -33.332031 20.074219 -32.960938 20.753906 -32.960938 L 26.949219 -32.960938 C 27.570312 -32.960938 27.941406 -33.332031 27.941406 -33.953125 Z M 27.941406 -40.644531 "/></g></g></g><g fill="#ffffff" fill-opacity="1"><g transform="translate(105.616373, 67.611473)"><g><path d="M 20.941406 -43.367188 C 20.257812 -43.367188 19.703125 -42.8125 19.703125 -42.128906 L 19.703125 -10.65625 C 19.703125 -8.984375 18.835938 -8.179688 17.222656 -8.179688 L 14.003906 -8.179688 C 12.390625 -8.179688 11.523438 -8.984375 11.523438 -10.65625 L 11.523438 -42.128906 C 11.523438 -42.8125 10.964844 -43.367188 10.285156 -43.367188 L 4.335938 -43.367188 C 3.65625 -43.367188 3.097656 -42.8125 3.097656 -42.128906 L 3.097656 -8.921875 C 3.097656 -3.097656 6.195312 0 12.019531 0 L 18.957031 0 C 24.78125 0 27.878906 -3.097656 27.878906 -8.921875 L 27.878906 -42.128906 C 27.878906 -42.8125 27.324219 -43.367188 26.640625 -43.367188 Z M 20.941406 -43.367188 "/></g></g></g><g fill="#ffffff" fill-opacity="1"><g transform="translate(136.592096, 67.611473)"><g><path d="M 12.019531 -43.367188 C 6.257812 -43.367188 3.097656 -40.269531 3.097656 -34.449219 L 3.097656 -23.730469 C 3.097656 -22.550781 3.65625 -21.808594 4.769531 -21.4375 L 19.640625 -16.605469 L 19.640625 -10.347656 C 19.640625 -8.671875 18.773438 -7.867188 17.160156 -7.867188 L 13.816406 -7.867188 C 12.265625 -7.867188 11.339844 -8.671875 11.339844 -10.347656 L 11.339844 -12.949219 C 11.339844 -13.628906 11.027344 -13.941406 10.347656 -13.941406 L 4.089844 -13.941406 C 3.46875 -13.941406 3.097656 -13.628906 3.097656 -12.949219 L 3.097656 -8.921875 C 3.097656 -3.097656 6.257812 0 12.019531 0 L 18.957031 0 C 24.78125 0 27.878906 -3.097656 27.878906 -8.921875 L 27.878906 -20.570312 C 27.878906 -21.746094 27.324219 -22.488281 26.269531 -22.863281 L 11.277344 -27.695312 L 11.277344 -32.960938 C 11.277344 -34.570312 12.207031 -35.4375 13.753906 -35.4375 L 17.160156 -35.4375 C 18.835938 -35.4375 19.640625 -34.570312 19.640625 -32.960938 L 19.640625 -30.359375 C 19.640625 -29.738281 20.011719 -29.367188 20.632812 -29.367188 L 26.890625 -29.367188 C 27.570312 -29.367188 27.878906 -29.738281 27.878906 -30.359375 L 27.878906 -34.449219 C 27.878906 -40.269531 24.78125 -43.367188 18.957031 -43.367188 Z M 12.019531 -43.367188 "/></g></g></g><g fill="#ffffff" fill-opacity="1"><g transform="translate(167.567819, 67.611473)"><g><path d="M 25.648438 -43.367188 C 26.332031 -43.367188 26.640625 -42.996094 26.640625 -42.378906 L 26.640625 -36.183594 C 26.640625 -35.5625 26.332031 -35.191406 25.648438 -35.191406 L 18.460938 -35.191406 L 18.460938 -0.992188 C 18.460938 -0.308594 18.152344 0 17.472656 0 L 11.027344 0 C 10.410156 0 10.035156 -0.308594 10.035156 -0.992188 L 10.035156 -35.191406 L 2.851562 -35.191406 C 2.230469 -35.191406 1.859375 -35.5625 1.859375 -36.183594 L 1.859375 -42.378906 C 1.859375 -42.996094 2.230469 -43.367188 2.851562 -43.367188 Z M 25.648438 -43.367188 "/></g></g></g><g fill="#ffffff" fill-opacity="1"><g transform="translate(196.065491, 67.611473)"><g><path d="M 3.097656 -8.921875 C 3.097656 -3.097656 6.195312 0 12.019531 0 L 18.957031 0 C 24.78125 0 27.878906 -3.097656 27.878906 -8.921875 L 27.878906 -34.449219 C 27.878906 -40.269531 24.78125 -43.367188 18.957031 -43.367188 L 12.019531 -43.367188 C 6.195312 -43.367188 3.097656 -40.269531 3.097656 -34.449219 Z M 13.628906 -7.992188 C 12.019531 -7.992188 11.152344 -8.796875 11.152344 -10.46875 L 11.152344 -32.898438 C 11.152344 -34.507812 12.019531 -35.375 13.628906 -35.375 L 17.59375 -35.375 C 19.207031 -35.375 20.074219 -34.507812 20.074219 -32.898438 L 20.074219 -10.46875 C 20.074219 -8.796875 19.207031 -7.992188 17.59375 -7.992188 Z M 13.628906 -7.992188 "/></g></g></g><g fill="#ffffff" fill-opacity="1"><g transform="translate(227.041214, 67.611473)"><g><path d="M 28.996094 -49.566406 C 28.25 -49.566406 27.816406 -49.191406 27.632812 -48.449219 L 20.753906 -17.59375 L 13.878906 -48.449219 C 13.691406 -49.191406 13.257812 -49.566406 12.515625 -49.566406 L 4.335938 -49.566406 C 3.53125 -49.566406 3.097656 -49.132812 3.097656 -48.324219 L 3.097656 -1.238281 C 3.097656 -0.433594 3.53125 0 4.335938 0 L 10.035156 0 C 10.84375 0 11.277344 -0.433594 11.277344 -1.238281 L 11.277344 -29.121094 L 11.710938 -29.121094 L 17.84375 -1.113281 C 18.027344 -0.371094 18.460938 0 19.207031 0 L 22.242188 0 C 22.984375 0 23.417969 -0.371094 23.605469 -1.113281 L 29.738281 -29.121094 L 30.171875 -29.121094 L 30.171875 -1.238281 C 30.171875 -0.433594 30.605469 0 31.410156 0 L 37.171875 0 C 37.980469 0 38.414062 -0.433594 38.414062 -1.238281 L 38.414062 -48.324219 C 38.414062 -49.132812 37.980469 -49.566406 37.171875 -49.566406 Z M 28.996094 -49.566406 "/></g></g></g><g fill="#ffffff" fill-opacity="1"><g transform="translate(268.548678, 67.611473)"><g><path d="M 27.816406 -42.378906 C 27.816406 -42.996094 27.570312 -43.367188 26.828125 -43.367188 L 4.027344 -43.367188 C 3.46875 -43.367188 3.097656 -42.996094 3.097656 -42.378906 L 3.097656 -0.992188 C 3.097656 -0.371094 3.46875 0 4.027344 0 L 26.828125 0 C 27.570312 0 27.816406 -0.371094 27.816406 -0.992188 L 27.816406 -7.1875 C 27.816406 -7.867188 27.570312 -8.179688 26.828125 -8.179688 L 11.523438 -8.179688 L 11.523438 -17.347656 L 23.171875 -17.347656 C 23.792969 -17.347656 24.164062 -17.71875 24.164062 -18.402344 L 24.164062 -24.535156 C 24.164062 -25.214844 23.792969 -25.585938 23.171875 -25.585938 L 11.523438 -25.585938 L 11.523438 -35.128906 L 26.828125 -35.128906 C 27.570312 -35.128906 27.816406 -35.5625 27.816406 -36.183594 Z M 27.816406 -42.378906 "/></g></g></g><g clip-path="url(#be98387457)"><path stroke-linecap="butt" transform="matrix(0.654164, 0, 0, 0.654164, 68.987633, 12.007505)" fill="none" stroke-linejoin="miter" d="M 51.253165 22.870775 C 51.253165 13.967479 46.422336 9.22622 37.614582 9.22622 L 27.021391 9.22622 C 18.118095 9.22622 13.287265 13.967479 13.287265 22.870775 L 13.287265 71.35821 C 13.287265 80.261506 18.118095 85.002765 27.021391 85.002765 L 37.614582 85.002765 C 46.422336 85.002765 51.253165 80.261506 51.253165 71.35821 L 51.253165 61.135243 C 51.253165 60.191768 50.697829 59.612547 49.748383 59.612547 L 40.271836 59.612547 C 39.23282 59.612547 38.767054 60.191768 38.767054 61.135243 L 38.767054 68.700955 C 38.767054 71.262668 37.429469 72.492768 34.975241 72.492768 L 30.04887 72.492768 C 27.576727 72.492768 26.257057 71.262668 26.257057 68.700955 L 26.257057 25.52803 C 26.257057 23.055887 27.487157 21.736217 30.04887 21.736217 L 34.975241 21.736217 C 37.429469 21.736217 38.767054 23.055887 38.767054 25.52803 L 38.767054 33.08777 C 38.767054 34.037216 39.23282 34.616438 40.271836 34.616438 L 49.748383 34.616438 C 50.697829 34.616438 51.253165 34.037216 51.253165 33.08777 Z M 87.994937 18.708738 C 86.95592 18.708738 86.11993 19.562642 86.11993 20.601659 L 86.11993 68.700955 C 86.11993 71.262668 84.782346 72.492768 82.328117 72.492768 L 77.401746 72.492768 C 74.929604 72.492768 73.609933 71.262668 73.609933 68.700955 L 73.609933 20.601659 C 73.609933 19.562642 72.756029 18.708738 71.717012 18.708738 L 62.628604 18.708738 C 61.589588 18.708738 60.735683 19.562642 60.735683 20.601659 L 60.735683 71.35821 C 60.735683 80.261506 65.470971 85.002765 74.374267 85.002765 L 84.967458 85.002765 C 93.870754 85.002765 98.606042 80.261506 98.606042 71.35821 L 98.606042 20.601659 C 98.606042 19.562642 97.752137 18.708738 96.713121 18.708738 Z M 121.727143 18.708738 C 112.919389 18.708738 108.082588 23.449997 108.082588 32.347322 L 108.082588 48.720788 C 108.082588 50.524138 108.942464 51.658697 110.626387 52.237918 L 133.359351 59.612547 L 133.359351 69.184635 C 133.359351 71.752319 132.03968 72.976448 129.591423 72.976448 L 124.456055 72.976448 C 122.097368 72.976448 120.688127 71.752319 120.688127 69.184635 L 120.688127 65.20771 C 120.688127 64.168694 120.198476 63.679042 119.159459 63.679042 L 109.587371 63.679042 C 108.637925 63.679042 108.082588 64.168694 108.082588 65.20771 L 108.082588 71.35821 C 108.082588 80.261506 112.919389 85.002765 121.727143 85.002765 L 132.314363 85.002765 C 141.217659 85.002765 145.958918 80.261506 145.958918 71.35821 L 145.958918 53.551617 C 145.958918 51.748267 145.105014 50.61968 143.510661 50.064344 L 120.5687 42.659859 L 120.5687 34.616438 C 120.5687 32.144296 122.001826 30.824625 124.360513 30.824625 L 129.591423 30.824625 C 132.135222 30.824625 133.359351 32.144296 133.359351 34.616438 L 133.359351 38.593363 C 133.359351 39.542809 133.938573 40.098146 134.882047 40.098146 L 144.454136 40.098146 C 145.499123 40.098146 145.958918 39.542809 145.958918 38.593363 L 145.958918 32.347322 C 145.958918 23.449997 141.217659 18.708738 132.314363 18.708738 Z M 189.914091 18.708738 C 190.953108 18.708738 191.412902 19.264074 191.412902 20.21352 L 191.412902 29.690067 C 191.412902 30.639513 190.953108 31.19485 189.914091 31.19485 L 178.926791 31.19485 L 178.926791 83.474097 C 178.926791 84.536999 178.443111 85.002765 177.404094 85.002765 L 167.551352 85.002765 C 166.601906 85.002765 166.052541 84.536999 166.052541 83.474097 L 166.052541 31.19485 L 155.041355 31.19485 C 154.09788 31.19485 153.542544 30.639513 153.542544 29.690067 L 153.542544 20.21352 C 153.542544 19.264074 154.09788 18.708738 155.041355 18.708738 Z M 199.002499 71.35821 C 199.002499 80.261506 203.737787 85.002765 212.641083 85.002765 L 223.234274 85.002765 C 232.13757 85.002765 236.872858 80.261506 236.872858 71.35821 L 236.872858 32.347322 C 236.872858 23.449997 232.13757 18.708738 223.234274 18.708738 L 212.641083 18.708738 C 203.737787 18.708738 199.002499 23.449997 199.002499 32.347322 Z M 215.095312 72.791336 C 212.641083 72.791336 211.303499 71.543322 211.303499 68.999523 L 211.303499 34.706009 C 211.303499 32.257751 212.641083 30.914196 215.095312 30.914196 L 221.15027 30.914196 C 223.628384 30.914196 224.942083 32.257751 224.942083 34.706009 L 224.942083 68.999523 C 224.942083 71.543322 223.628384 72.791336 221.15027 72.791336 Z M 285.939514 9.22622 C 284.804956 9.22622 284.136164 9.805442 283.85551 10.94 L 273.333975 58.107764 L 262.836326 10.94 C 262.537759 9.805442 261.892852 9.22622 260.734408 9.22622 L 248.248297 9.22622 C 247.000283 9.22622 246.349404 9.895012 246.349404 11.125112 L 246.349404 83.103873 C 246.349404 84.328001 247.000283 85.002765 248.248297 85.002765 L 256.966481 85.002765 C 258.190609 85.002765 258.835516 84.328001 258.835516 83.103873 L 258.835516 40.486284 L 259.51028 40.486284 L 268.897256 83.288985 C 269.171938 84.423543 269.846702 85.002765 270.975289 85.002765 L 275.603092 85.002765 C 276.755564 85.002765 277.406442 84.423543 277.70501 83.288985 L 287.068101 40.486284 L 287.742865 40.486284 L 287.742865 83.103873 C 287.742865 84.328001 288.387771 85.002765 289.635785 85.002765 L 298.449511 85.002765 C 299.67364 85.002765 300.342432 84.328001 300.342432 83.103873 L 300.342432 11.125112 C 300.342432 9.895012 299.67364 9.22622 298.449511 9.22622 Z M 347.587824 20.21352 C 347.587824 19.264074 347.2176 18.708738 346.083041 18.708738 L 311.210305 18.708738 C 310.356401 18.708738 309.801065 19.264074 309.801065 20.21352 L 309.801065 83.474097 C 309.801065 84.423543 310.356401 85.002765 311.210305 85.002765 L 346.083041 85.002765 C 347.2176 85.002765 347.587824 84.423543 347.587824 83.474097 L 347.587824 74.015464 C 347.587824 72.976448 347.2176 72.492768 346.083041 72.492768 L 322.681286 72.492768 L 322.681286 58.477988 L 340.487878 58.477988 C 341.437324 58.477988 341.986689 57.922652 341.986689 56.85975 L 341.986689 47.496659 C 341.986689 46.457643 341.437324 45.878421 340.487878 45.878421 L 322.681286 45.878421 L 322.681286 31.308305 L 346.083041 31.308305 C 347.2176 31.308305 347.587824 30.639513 347.587824 29.690067 Z M 347.587824 20.21352 " stroke="#000000" stroke-width="3.551921" stroke-opacity="1" stroke-miterlimit="4"/></g><g clip-path="url(#4bbee836f7)"><path fill="#ffffff" d="M 42.929688 69.746094 C 42.832031 69.824219 42.882812 69.785156 42.929688 69.746094 Z M 10.390625 81.652344 C 10.425781 81.667969 10.472656 81.691406 10.390625 81.652344 Z M 7.011719 79.105469 C 7.03125 79.132812 7.046875 79.160156 7.011719 79.105469 Z M 4.425781 68.03125 C 4.429688 68.03125 4.429688 68.046875 4.425781 68.070312 C 4.425781 68.046875 4.425781 68.03125 4.425781 68.03125 Z M 13.703125 76.078125 C 13.730469 76.085938 13.746094 76.089844 13.703125 76.078125 Z M 3.746094 70.15625 C 3.730469 70.132812 3.71875 70.113281 3.746094 70.15625 Z M 69.742188 30.128906 C 68.890625 29.113281 67.425781 28.671875 66.140625 28.816406 C 65.222656 28.917969 64.371094 29.277344 63.59375 29.765625 C 63.304688 29.945312 63.007812 30.144531 62.742188 30.371094 C 61.957031 25.660156 60.28125 21.089844 57.761719 17.054688 C 55.90625 14.078125 53.585938 11.347656 50.859375 9.136719 C 48.109375 6.910156 45.023438 5.1875 41.691406 4 C 35.214844 1.6875 27.777344 1.53125 21.355469 4.132812 C 15.21875 6.621094 10.1875 11.5 7.445312 17.539062 C 6.066406 20.578125 5.230469 23.839844 5.128906 27.1875 C 5.015625 30.910156 5.945312 34.5 7.417969 37.898438 C 8.957031 41.453125 11.070312 44.71875 13.148438 47.976562 C 14.210938 49.640625 15.257812 51.320312 16.207031 53.054688 C 16.683594 53.921875 17.136719 54.804688 17.550781 55.699219 C 17.757812 56.140625 17.945312 56.566406 18.066406 56.871094 C 18.253906 57.324219 18.429688 57.78125 18.59375 58.242188 C 18.925781 59.15625 19.203125 60.089844 19.421875 61.039062 C 19.527344 61.492188 19.617188 61.945312 19.691406 62.402344 C 19.765625 62.863281 19.804688 63.175781 19.847656 63.734375 C 19.910156 64.542969 19.917969 65.355469 19.855469 66.164062 C 19.839844 66.335938 19.824219 66.511719 19.804688 66.683594 C 19.800781 66.707031 19.773438 66.914062 19.777344 66.890625 C 19.769531 66.929688 19.765625 66.964844 19.761719 67.003906 C 19.695312 67.417969 19.613281 67.832031 19.515625 68.238281 C 19.335938 68.988281 19.09375 69.71875 18.8125 70.433594 C 18.804688 70.445312 18.792969 70.476562 18.785156 70.5 C 18.746094 70.582031 18.710938 70.667969 18.671875 70.75 C 18.601562 70.910156 18.527344 71.066406 18.449219 71.222656 C 18.273438 71.578125 18.082031 71.925781 17.875 72.265625 C 17.113281 73.523438 16.339844 74.527344 15.132812 75.472656 C 14.976562 75.59375 14.609375 75.84375 14.335938 76.003906 C 14.269531 76.042969 14.203125 76.082031 14.136719 76.117188 C 14.066406 76.117188 13.875 76.105469 13.945312 76.113281 C 13.871094 76.105469 13.757812 76.085938 13.691406 76.074219 C 13.679688 76.074219 13.667969 76.070312 13.648438 76.066406 C 13.449219 76.007812 13.242188 75.980469 13.039062 75.921875 C 13.011719 75.914062 12.851562 75.855469 12.832031 75.851562 C 12.746094 75.8125 12.660156 75.769531 12.578125 75.71875 C 12.496094 75.671875 12.414062 75.617188 12.332031 75.558594 C 12.324219 75.554688 12.320312 75.550781 12.316406 75.546875 C 12.3125 75.542969 12.3125 75.542969 12.304688 75.539062 C 12.25 75.492188 12.195312 75.445312 12.140625 75.398438 C 11.757812 75.042969 11.59375 74.828125 11.34375 74.382812 C 11.28125 74.277344 11.226562 74.171875 11.175781 74.066406 C 11.152344 74.019531 11.132812 73.976562 11.113281 73.929688 C 11.109375 73.925781 11.109375 73.917969 11.105469 73.910156 C 11.011719 73.664062 10.9375 73.414062 10.871094 73.164062 C 10.347656 71.15625 10.242188 68.917969 8.628906 67.402344 C 7.890625 66.714844 6.9375 66.214844 5.941406 66.054688 C 4.90625 65.890625 3.753906 65.910156 3.058594 66.808594 C 2.457031 67.589844 2.46875 68.695312 3.070312 69.472656 C 3.207031 69.648438 3.359375 69.773438 3.523438 69.921875 C 3.605469 70 3.683594 70.082031 3.753906 70.171875 C 3.761719 70.183594 3.769531 70.195312 3.78125 70.214844 C 3.820312 70.277344 3.859375 70.339844 3.898438 70.40625 C 3.941406 70.484375 3.980469 70.566406 4.019531 70.648438 C 4.027344 70.671875 4.039062 70.707031 4.042969 70.714844 C 4.0625 70.773438 4.082031 70.832031 4.097656 70.886719 C 4.136719 71.003906 4.164062 71.121094 4.191406 71.242188 C 4.203125 71.300781 4.214844 71.359375 4.226562 71.421875 C 4.230469 71.445312 4.234375 71.460938 4.238281 71.472656 C 4.238281 71.476562 4.238281 71.484375 4.238281 71.496094 C 4.363281 72.589844 4.144531 73.675781 4.039062 74.765625 C 3.941406 75.8125 3.996094 76.875 4.335938 77.878906 C 4.960938 79.726562 6.28125 81.230469 7.886719 82.300781 C 9.238281 83.199219 10.78125 83.769531 12.394531 83.925781 C 13.804688 84.0625 15.238281 83.980469 16.644531 83.828125 C 18.320312 83.648438 19.988281 83.332031 21.613281 82.882812 C 22.148438 82.738281 22.675781 82.566406 23.191406 82.367188 C 23.414062 82.324219 23.632812 82.277344 23.84375 82.226562 C 24.746094 82.007812 25.640625 81.757812 26.53125 81.484375 C 28.382812 80.914062 30.203125 80.207031 31.976562 79.4375 C 35.382812 77.953125 38.660156 76.175781 41.734375 74.089844 C 47.902344 69.90625 53.222656 64.527344 57.054688 58.109375 C 60.027344 53.136719 62.089844 47.566406 62.890625 41.816406 C 62.976562 41.730469 63.058594 41.644531 63.144531 41.5625 C 63.5 41.234375 63.847656 40.898438 64.195312 40.5625 C 64.863281 39.914062 65.523438 39.257812 66.167969 38.589844 C 66.792969 37.949219 67.402344 37.300781 68.007812 36.640625 C 68.601562 35.988281 69.207031 35.328125 69.679688 34.578125 C 70.546875 33.203125 70.851562 31.460938 69.742188 30.128906 " fill-opacity="1" fill-rule="nonzero"/></g><path fill="#000000" d="M 46.925781 14.257812 C 44.964844 12.65625 43.40625 14.84375 43.503906 16.839844 C 43.59375 18.742188 44.808594 21.640625 46.34375 22.824219 C 47.0625 23.378906 48.007812 23.675781 48.894531 23.492188 C 50.960938 23.054688 50.90625 20.917969 50.332031 19.335938 C 49.582031 17.265625 47.914062 15.0625 46.925781 14.257812 " fill-opacity="1" fill-rule="nonzero"/><path fill="#000000" d="M 29.824219 21.699219 C 29.734375 21.636719 29.640625 21.570312 29.542969 21.511719 C 27.464844 20.203125 25.046875 21.113281 24.367188 23.519531 C 23.714844 25.820312 24.980469 28.9375 26.304688 30.769531 C 27.222656 32.042969 28.699219 33.363281 30.367188 33.222656 C 33.449219 32.957031 33.714844 29.578125 33.117188 27.214844 C 32.59375 25.125 31.625 22.980469 29.824219 21.699219 " fill-opacity="1" fill-rule="nonzero"/><path fill="#000000" d="M 48.128906 34.714844 C 47.902344 34.078125 47.578125 33.453125 47.125 32.949219 C 46.90625 32.707031 46.574219 32.554688 46.371094 32.320312 C 46.226562 32.15625 46.261719 32.277344 46.285156 32.058594 C 46.300781 31.894531 46.382812 31.742188 46.519531 31.648438 C 46.660156 31.554688 46.828125 31.515625 46.992188 31.46875 C 47.578125 31.296875 47.761719 30.628906 47.136719 30.40625 C 45.910156 29.964844 44.976562 31.894531 44.824219 32.828125 C 44.550781 34.503906 44.71875 36.539062 45.796875 37.980469 C 47.722656 40.566406 48.785156 37.4375 48.363281 35.519531 C 48.304688 35.261719 48.226562 34.988281 48.128906 34.714844 " fill-opacity="1" fill-rule="nonzero"/><path fill="#000000" d="M 45.832031 43.964844 C 44.574219 43.1875 42.957031 43.503906 41.628906 43.886719 C 40.660156 44.164062 39.710938 44.519531 38.730469 44.757812 C 38.238281 44.878906 37.738281 44.96875 37.230469 44.996094 C 36.734375 45.019531 36.167969 45.136719 35.679688 45.039062 C 35.519531 45.007812 35.464844 45.222656 35.613281 45.28125 C 35.984375 45.429688 36.3125 45.617188 36.714844 45.691406 C 37.128906 45.765625 37.566406 45.742188 37.984375 45.699219 C 38.816406 45.617188 39.621094 45.417969 40.417969 45.179688 C 41.726562 44.792969 43.214844 44.199219 44.597656 44.515625 C 45.070312 44.625 45.5625 44.847656 45.785156 45.308594 C 46.089844 45.941406 45.742188 46.660156 45.394531 47.195312 C 44.632812 48.363281 43.515625 49.390625 42.414062 50.230469 C 41.769531 50.71875 41.089844 51.167969 40.382812 51.5625 C 39.667969 51.964844 38.875 52.25 38.21875 52.746094 C 38.054688 52.875 37.949219 53.054688 38.007812 53.269531 C 38.058594 53.457031 38.253906 53.625 38.453125 53.609375 C 39.285156 53.546875 40.035156 53.164062 40.757812 52.773438 C 41.457031 52.390625 42.125 51.957031 42.753906 51.472656 C 44.011719 50.503906 45.171875 49.367188 46.085938 48.0625 C 46.550781 47.398438 46.964844 46.574219 46.910156 45.738281 C 46.863281 45 46.460938 44.355469 45.832031 43.964844 " fill-opacity="1" fill-rule="nonzero"/><g clip-path="url(#e9c6a184e5)"><path fill="#000000" d="M 68.4375 34.082031 C 68.015625 34.695312 67.5 35.238281 66.996094 35.785156 C 66.441406 36.386719 65.878906 36.984375 65.308594 37.570312 C 64.660156 38.238281 64 38.890625 63.332031 39.539062 C 63.261719 39.605469 63.191406 39.671875 63.125 39.738281 C 63.195312 38.886719 63.242188 38.03125 63.257812 37.171875 C 63.289062 35.210938 63.160156 33.246094 62.882812 31.296875 C 63.171875 31.140625 63.464844 30.984375 63.75 30.816406 C 64.359375 30.460938 65.003906 30.171875 65.695312 30.011719 C 66.722656 29.78125 67.9375 30.007812 68.679688 30.773438 C 69.042969 31.148438 69.222656 31.621094 69.207031 32.171875 C 69.191406 32.871094 68.820312 33.519531 68.4375 34.082031 Z M 60.15625 40.898438 C 59.96875 42.453125 59.6875 43.992188 59.308594 45.515625 C 58.203125 49.933594 56.28125 54.144531 53.816406 57.964844 C 52.582031 59.875 51.207031 61.691406 49.707031 63.394531 C 46.886719 66.601562 43.640625 69.402344 40.097656 71.78125 C 38.589844 72.792969 37.035156 73.730469 35.445312 74.597656 C 32.273438 76.320312 28.957031 77.710938 25.574219 78.960938 C 24.738281 79.269531 23.902344 79.574219 23.0625 79.871094 C 20.828125 80.648438 18.5625 81.394531 16.21875 81.769531 C 14.003906 82.121094 11.816406 82.277344 9.703125 81.363281 C 8.625 80.898438 7.679688 79.996094 7.007812 79.042969 C 6.484375 78.300781 6.097656 77.457031 5.902344 76.570312 C 5.640625 75.390625 5.964844 74.203125 6.082031 73.03125 C 6.175781 72.125 6.117188 71.183594 5.839844 70.316406 C 5.699219 69.875 5.5 69.449219 5.222656 69.078125 C 5.074219 68.882812 4.5625 68.535156 4.445312 68.25 C 4.445312 68.246094 4.445312 68.242188 4.441406 68.238281 C 4.425781 68.191406 4.417969 68.148438 4.421875 68.105469 C 4.445312 67.964844 4.5625 67.851562 4.699219 67.804688 C 5.769531 67.421875 7.105469 68.347656 7.757812 69.128906 C 8.625 70.164062 8.597656 71.378906 8.898438 72.625 C 9.3125 74.347656 10.070312 76.210938 11.621094 77.191406 C 11.582031 77.199219 11.542969 77.214844 11.503906 77.222656 C 10.71875 77.429688 10.765625 77.886719 11.585938 78.140625 C 12.378906 78.382812 13.539062 78.15625 14.242188 77.867188 C 18.007812 76.292969 20.476562 73.105469 21.59375 69.210938 C 21.976562 67.867188 22.195312 66.472656 22.238281 65.074219 C 22.367188 60.710938 20.921875 56.523438 18.96875 52.683594 C 17.980469 50.742188 16.863281 48.867188 15.71875 47.015625 C 14.582031 45.171875 13.382812 43.375 12.300781 41.496094 C 10.421875 38.238281 8.757812 34.613281 8.140625 30.890625 C 8.132812 30.84375 8.097656 30.597656 8.082031 30.515625 C 7.535156 26.308594 8.410156 21.875 10.269531 18.070312 C 12.105469 14.304688 14.90625 11.304688 18.304688 8.90625 C 21.507812 6.644531 25.523438 5.5 29.398438 5.175781 C 33.628906 4.824219 37.945312 5.460938 41.878906 7.074219 C 45.15625 8.417969 48.167969 10.328125 50.734375 12.78125 C 53.984375 15.886719 56.445312 19.773438 58.078125 23.953125 C 58.605469 25.316406 59.050781 26.710938 59.40625 28.128906 C 60.449219 32.292969 60.660156 36.640625 60.15625 40.898438 Z M 42.929688 69.746094 C 42.832031 69.824219 42.882812 69.785156 42.929688 69.746094 Z M 10.390625 81.652344 C 10.425781 81.667969 10.472656 81.691406 10.390625 81.652344 Z M 7.011719 79.105469 C 7.03125 79.132812 7.046875 79.160156 7.011719 79.105469 Z M 4.425781 68.03125 C 4.429688 68.03125 4.429688 68.046875 4.425781 68.070312 C 4.425781 68.046875 4.425781 68.03125 4.425781 68.03125 Z M 13.703125 76.078125 C 13.730469 76.085938 13.746094 76.089844 13.703125 76.078125 Z M 3.746094 70.15625 C 3.730469 70.132812 3.71875 70.113281 3.746094 70.15625 Z M 69.742188 30.128906 C 68.890625 29.113281 67.425781 28.671875 66.140625 28.816406 C 65.222656 28.917969 64.371094 29.277344 63.59375 29.765625 C 63.304688 29.945312 63.007812 30.144531 62.742188 30.371094 C 61.957031 25.660156 60.28125 21.089844 57.761719 17.054688 C 55.90625 14.078125 53.585938 11.347656 50.859375 9.136719 C 48.109375 6.910156 45.023438 5.1875 41.691406 4 C 35.214844 1.6875 27.777344 1.53125 21.355469 4.132812 C 15.21875 6.621094 10.1875 11.5 7.445312 17.539062 C 6.066406 20.578125 5.230469 23.839844 5.128906 27.1875 C 5.015625 30.910156 5.945312 34.5 7.417969 37.898438 C 8.957031 41.453125 11.070312 44.71875 13.148438 47.976562 C 14.210938 49.640625 15.257812 51.320312 16.207031 53.054688 C 16.683594 53.921875 17.136719 54.804688 17.550781 55.699219 C 17.757812 56.140625 17.945312 56.566406 18.066406 56.871094 C 18.253906 57.324219 18.429688 57.78125 18.59375 58.242188 C 18.925781 59.15625 19.203125 60.089844 19.421875 61.039062 C 19.527344 61.492188 19.617188 61.945312 19.691406 62.402344 C 19.765625 62.863281 19.804688 63.175781 19.847656 63.734375 C 19.910156 64.542969 19.917969 65.355469 19.855469 66.164062 C 19.839844 66.335938 19.824219 66.511719 19.804688 66.683594 C 19.800781 66.707031 19.773438 66.914062 19.777344 66.890625 C 19.769531 66.929688 19.765625 66.964844 19.761719 67.003906 C 19.695312 67.417969 19.613281 67.832031 19.515625 68.238281 C 19.335938 68.988281 19.09375 69.71875 18.8125 70.433594 C 18.804688 70.445312 18.792969 70.476562 18.785156 70.5 C 18.746094 70.582031 18.710938 70.667969 18.671875 70.75 C 18.601562 70.910156 18.527344 71.066406 18.449219 71.222656 C 18.273438 71.578125 18.082031 71.925781 17.875 72.265625 C 17.113281 73.523438 16.339844 74.527344 15.132812 75.472656 C 14.976562 75.59375 14.609375 75.84375 14.335938 76.003906 C 14.269531 76.042969 14.203125 76.082031 14.136719 76.117188 C 14.066406 76.117188 13.875 76.105469 13.945312 76.113281 C 13.871094 76.105469 13.757812 76.085938 13.691406 76.074219 C 13.679688 76.074219 13.667969 76.070312 13.648438 76.066406 C 13.449219 76.007812 13.242188 75.980469 13.039062 75.921875 C 13.011719 75.914062 12.851562 75.855469 12.832031 75.851562 C 12.746094 75.8125 12.660156 75.769531 12.578125 75.71875 C 12.496094 75.671875 12.414062 75.617188 12.332031 75.558594 C 12.324219 75.554688 12.320312 75.550781 12.316406 75.546875 C 12.3125 75.542969 12.3125 75.542969 12.304688 75.539062 C 12.25 75.492188 12.195312 75.445312 12.140625 75.398438 C 11.757812 75.042969 11.59375 74.828125 11.34375 74.382812 C 11.28125 74.277344 11.226562 74.171875 11.175781 74.066406 C 11.152344 74.019531 11.132812 73.976562 11.113281 73.929688 C 11.109375 73.925781 11.109375 73.917969 11.105469 73.910156 C 11.011719 73.664062 10.9375 73.414062 10.871094 73.164062 C 10.347656 71.15625 10.242188 68.917969 8.628906 67.402344 C 7.890625 66.714844 6.9375 66.214844 5.941406 66.054688 C 4.90625 65.890625 3.753906 65.910156 3.058594 66.808594 C 2.457031 67.589844 2.46875 68.695312 3.070312 69.472656 C 3.207031 69.648438 3.359375 69.773438 3.523438 69.921875 C 3.605469 70 3.683594 70.082031 3.753906 70.171875 C 3.761719 70.183594 3.769531 70.195312 3.78125 70.214844 C 3.820312 70.277344 3.859375 70.339844 3.898438 70.40625 C 3.941406 70.484375 3.980469 70.566406 4.019531 70.648438 C 4.027344 70.671875 4.039062 70.707031 4.042969 70.714844 C 4.0625 70.773438 4.082031 70.832031 4.097656 70.886719 C 4.136719 71.003906 4.164062 71.121094 4.191406 71.242188 C 4.203125 71.300781 4.214844 71.359375 4.226562 71.421875 C 4.230469 71.445312 4.234375 71.460938 4.238281 71.472656 C 4.238281 71.476562 4.238281 71.484375 4.238281 71.496094 C 4.363281 72.589844 4.144531 73.675781 4.039062 74.765625 C 3.941406 75.8125 3.996094 76.875 4.335938 77.878906 C 4.960938 79.726562 6.28125 81.230469 7.886719 82.300781 C 9.238281 83.199219 10.78125 83.769531 12.394531 83.925781 C 13.804688 84.0625 15.238281 83.980469 16.644531 83.828125 C 18.320312 83.648438 19.988281 83.332031 21.613281 82.882812 C 22.148438 82.738281 22.675781 82.566406 23.191406 82.367188 C 23.414062 82.324219 23.632812 82.277344 23.84375 82.226562 C 24.746094 82.007812 25.640625 81.757812 26.53125 81.484375 C 28.382812 80.914062 30.203125 80.207031 31.976562 79.4375 C 35.382812 77.953125 38.660156 76.175781 41.734375 74.089844 C 47.902344 69.90625 53.222656 64.527344 57.054688 58.109375 C 60.027344 53.136719 62.089844 47.566406 62.890625 41.816406 C 62.976562 41.730469 63.058594 41.644531 63.144531 41.5625 C 63.5 41.234375 63.847656 40.898438 64.195312 40.5625 C 64.863281 39.914062 65.523438 39.257812 66.167969 38.589844 C 66.792969 37.949219 67.402344 37.300781 68.007812 36.640625 C 68.601562 35.988281 69.207031 35.328125 69.679688 34.578125 C 70.546875 33.203125 70.851562 31.460938 69.742188 30.128906 " fill-opacity="1" fill-rule="nonzero"/></g></svg>